{"title":"The Legend of Awesomest Maximus 2011 BDRip XVID AC3 HQ Hive CM8","uid":7215655,"size":1439645730,"categoryP":"video","categoryS":"movies","magnet":"?xt=urn:btih:7a12f8ee9544c15e7bf23dd1c5c7008f3d836463&amp;dn=The+Legend+of+Awesomest+Maximus+2011+BDRip+XVID+AC3+HQ+Hive+CM8+&amp;tr=udp%3A%2F%2Ftracker.openbittorrent.com%3A80&amp;tr=udp%3A%2F%2Fopen.demonii.com%3A1337&amp;tr=udp%3A%2F%2Ftracker.coppersurfer.tk%3A6969&amp;tr=udp%3A%2F%2Fexodus.desync.com%3A6969","seeders":0,"leechers":0,"uploader":"avrumi","files":-1,"time":1335368080,"description":"\nThe Legend of Awesomest Maximus 2011 NTSC DVDR-FiCODVDR\n\n[Plot]\n\n\nFrom the director of Revenge Of The Nerds comes this outrageous sword and sandals spoof that's got more laughs than Gladiator, hotter bods than Troy and an army of 301! Horny King Looney of Troy (Rip Torn, Men In Black) sends slacker general Awesomest Maximus (Will Sasso, The Three Stooges) to maintain peace with rival King Erotic of Greece. But when Prince Orlando who's more into fashion than fighting, steals the King's wife Ellen (Sophie Monk, Date Movie) to be his BFF, it's war! Will Awesomest live up to his godly destiny? Can he defeat the mighty warrior Testiclees (Ian Ziering Beverly Hills 90210)? Can he light a fire under his gold-digging wife Hotessa (Kristanna Loken, Terminator 3: Rise Of The Machines)? Join the ultimate toga party for this savagely funny farce that takes comedy to the Maximus.\n\n\nSource: Bluray\nVideo: 720x400 @bitrate 1700 2pass\nAudio: English AC3 5.1 @384\nSample: Included &lt;a href=&quot;\nhttp://www.imdb.com/title/tt1059887/&quot; rel=&quot;nofollow&quot; target=&quot;_NEW&quot;&gt;\nhttp://www.imdb.com/title/tt1059887/&lt;/a&gt;\n\nGeneral\nFormat: AVI\nFormat/Info: Audio Video Interleave\nFile size: 1.33 GiB\nDuration: 1h 30mn\nOverall bit rate: 2 092 Kbps\n\nVideo\nFormat: MPEG-4 Visual\nCodec ID: XVID\nDuration: 1h 30mn\nBit rate: 1 699 Kbps\nWidth: 720 pixels\nHeight: 400 pixels\nDisplay aspect ratio: 16:9\nFrame rate: 23.976 fps\nChroma subsampling: 4:2:0\nBit depth: 8 bits\nBits/(Pixel*Frame): 0.246\nStream size: 1.08 GiB (81%)\nWriting library: XviD 1.2.1 (UTC 2008-12-04)\n\nAudio\nFormat: AC-3\nFormat/Info: Audio Coding 3\nCodec ID: 2000\nDuration: 1h 30mn\nBit rate mode: Constant\nBit rate: 384 Kbps\nChannel(s): 6 channels\nChannel positions: Front: L C R, Side: L R, LFE\nBit depth: 16 bits\nDelay relative to video: 26ms\nStream size: 250 MiB (18%)\nInterleave, duration: 42 ms (1.00 video frame)\n\n\n[screens]\n &lt;a href=&quot;\nhttp://img856.imageshack.us/img856/4619/lelellelelleelee.png&quot; rel=&quot;nofollow&quot; target=&quot;_NEW&quot;&gt;\nhttp://img856.imageshack.us/img856/4619/lelellelelleelee.png&lt;/a&gt; &lt;a href=&quot;\nhttp://img38.imageshack.us/img38/9995/lelellelelleee.png&quot; rel=&quot;nofollow&quot; target=&quot;_NEW&quot;&gt;\nhttp://img38.imageshack.us/img38/9995/lelellelelleee.png&lt;/a&gt; &lt;a href=&quot;\nhttp://img52.imageshack.us/img52/6460/lelellelelee.png&quot; rel=&quot;nofollow&quot; target=&quot;_NEW&quot;&gt;\nhttp://img52.imageshack.us/img52/6460/lelellelelee.png&lt;/a&gt; &lt;a href=&quot;\nhttp://img828.imageshack.us/img828/1582/lelellelee.png&quot; rel=&quot;nofollow&quot; target=&quot;_NEW&quot;&gt;\nhttp://img828.imageshack.us/img828/1582/lelellelee.png&lt;/a&gt;  &lt;a href=&quot;\nhttp://img560.imageshack.us/img560/3153/lelellee.png&quot; rel=&quot;nofollow&quot; target=&quot;_NEW&quot;&gt;\nhttp://img560.imageshack.us/img560/3153/lelellee.png&lt;/a&gt; &lt;a href=&quot;\nhttp://img696.imageshack.us/img696/2461/leleleu.png&quot; rel=&quot;nofollow&quot; target=&quot;_NEW&quot;&gt;\nhttp://img696.imageshack.us/img696/2461/leleleu.png&lt;/a&gt; &lt;a href=&quot;\nhttp://img39.imageshack.us/img39/8946/lelex.png&quot; rel=&quot;nofollow&quot; target=&quot;_NEW&quot;&gt;\nhttp://img39.imageshack.us/img39/8946/lelex.png&lt;/a&gt; &lt;a href=&quot;\nhttp://img820.imageshack.us/img820/8236/49631492.png&quot; rel=&quot;nofollow&quot; target=&quot;_NEW&quot;&gt;\nhttp://img820.imageshack.us/img820/8236/49631492.png&lt;/a&gt; &lt;a href=&quot;\nhttp://img820.imageshack.us/img820/2955/lelellelelelleleelee.png&quot; rel=&quot;nofollow&quot; target=&quot;_NEW&quot;&gt;\nhttp://img820.imageshack.us/img820/2955/lelellelelelleleelee.png&lt;/a&gt; &lt;a href=&quot;\nhttp://img607.imageshack.us/img607/327/lelellelelleleelee.png&quot; rel=&quot;nofollow&quot; target=&quot;_NEW&quot;&gt;\nhttp://img607.imageshack.us/img607/327/lelellelelleleelee.png&lt;/a&gt;  &lt;a href=&quot;\nhttp://img189.imageshack.us/img189/4092/lelellelelelleleelelee.png&quot; rel=&quot;nofollow&quot; target=&quot;_NEW&quot;&gt;\nhttp://img189.imageshack.us/img189/4092/lelellelelelleleelelee.png&lt;/a&gt;\n\n\n[trailer]\n\nvideo: you + tube\n./w.a.t.c..c.h.?.v.=.\nrNUlHjyUVaM\n\n...http://www .... y.o.u. .t.u.b.e. ./w.a.t.c..c.h.?.v.=.. . rNUlHjyUVaM...\n\n\nEnjoy :) ","torrent":{"xt":"urn:btih:7a12f8ee9544c15e7bf23dd1c5c7008f3d836463","amp;dn":"The+Legend+of+Awesomest+Maximus+2011+BDRip+XVID+AC3+HQ+Hive+CM8+","amp;tr":["udp%3A%2F%2Ftracker.openbittorrent.com%3A80","udp%3A%2F%2Fopen.demonii.com%3A1337","udp%3A%2F%2Ftracker.coppersurfer.tk%3A6969","udp%3A%2F%2Fexodus.desync.com%3A6969"],"infoHash":"7a12f8ee9544c15e7bf23dd1c5c7008f3d836463","infoHashBuffer":{"type":"Buffer","data":[122,18,248,238,149,68,193,94,123,242,61,209,197,199,0,143,61,131,100,99]},"announce":[],"urlList":[]}}